<?xml version="1.0" encoding="UTF-8" standalone="no"?>
<!-- Created with Inkscape (http://www.inkscape.org/) -->

<svg
   width="508mm"
   height="119.32694mm"
   viewBox="0 0 508 119.32694"
   version="1.1"
   id="svg19824"
   xmlns="http://www.w3.org/2000/svg"
   xmlns:svg="http://www.w3.org/2000/svg">
  <defs
     id="defs19821" />
  <g
     id="layer1"
     transform="translate(169.34124,-88.010244)">
    <path
       style="fill:#69a2ff;stroke-width:0.264583"
       d="M -169.34112,179.68836 V 152.0394 h 0.9221 0.92211 l 0.0701,-7.86199 0.0701,-7.862 0.79118,-0.009 c 0.66928,-0.008 0.81236,-0.13165 0.92864,-0.80311 0.13479,-0.7783 0.1683,-0.79375 1.72237,-0.79375 h 1.5849 l 0.0698,8.67881 0.0698,8.6788 1.38543,-0.0798 1.38542,-0.0798 0.0706,-6.81302 0.0706,-6.81302 h 2.1122 2.1122 v -6.87917 -6.87916 h 1.05833 c 1.03314,0 1.05834,-0.022 1.05834,-0.92605 v -0.92604 h 2.38125 2.38125 v 0.92604 c 0,0.81139 0.0819,0.92605 0.66145,0.92605 h 0.66146 v 10.71562 10.71563 h 3.57188 c 2.18281,0 3.58473,0.10289 3.60495,0.26458 0.0551,0.44123 0.16334,2.82131 0.19843,4.36562 l 0.0331,1.45521 h 2.64583 2.64583 v -7.40833 c 0,-7.15885 0.0173,-7.40833 0.51396,-7.40833 0.4155,0 0.52954,-0.21541 0.59531,-1.12448 0.0764,-1.05547 0.13414,-1.12957 0.94125,-1.20739 0.8121,-0.0783 0.8599,-0.1414 0.8599,-1.13518 v -1.05227 l 2.18281,0.0768 2.18281,0.0769 0.0814,1.12448 c 0.0719,0.99379 0.15647,1.12448 0.72761,1.12448 h 0.64624 v 8.46667 8.46666 h 4.49792 4.49792 v -1.17465 c 0,-1.16639 0.007,-1.17523 0.99218,-1.25677 l 0.99219,-0.0821 0.0704,-7.2099 0.0704,-7.20989 h 2.38291 2.38291 l 1.14815,-1.05833 c 1.14342,-1.05397 1.15704,-1.05834 3.30138,-1.05834 h 2.15323 v 4.36563 4.36562 h 1.79059 1.79058 l -0.005,-3.77031 -0.005,-3.77031 1.65364,-0.0788 c 1.63727,-0.078 1.65365,-0.0865 1.65365,-0.8599 l 1e-5,-0.78112 h 2.51354 2.51355 l 0.004,0.7276 c 0.008,1.57771 0.24752,1.91823 1.35017,1.91823 h 1.02747 v 1.5875 1.5875 h 1.05834 1.05833 v 3.95278 3.95278 l 0.99219,0.0821 c 1.11162,0.092 1.05388,-0.11716 1.10301,3.99502 l 0.0215,1.79625 2.31511,-0.0764 2.3151,-0.0764 0.0782,-1.78594 0.0782,-1.78593 h 1.04624 1.04625 v -16.0073 -16.00729 h 1.05833 1.05833 v -1.32291 -1.32292 h 4.49792 4.49792 v 16.00729 16.00729 h 3.43211 3.43212 l 0.0736,-3.63802 0.0736,-3.63802 2.3037,-0.0763 2.3037,-0.0763 0.0776,-7.68347 0.0775,-7.68347 0.9883,-0.90535 0.9883,-0.90536 h 2.94476 2.94477 l 0.83258,0.90898 c 0.70157,0.76592 1.04028,0.92206 2.15235,0.99218 l 1.31979,0.0832 0.0714,5.62239 0.0714,5.6224 h 0.65619 0.6562 v 3.70417 3.70416 h 2.24895 2.24896 v -20.29082 -20.29033 l 4.19815,-4.220976 c 2.66042,-2.67489 4.31386,-4.14947 4.51405,-4.02575 0.21118,0.13052 0.29686,0.91042 0.25847,2.35247 l -0.0574,2.15723 3.08159,0.0745 3.08159,0.0745 0.0686,13.419226 0.0686,13.41922 1.78594,0.0782 1.78594,0.0782 v -4.7195 -4.7195 l 1.17463,-1.15281 1.17463,-1.15282 3.25714,-0.0349 c 1.79143,-0.0192 3.4655,0.0124 3.72016,0.0703 0.43414,0.0986 0.46302,1.01938 0.46302,14.75866 v 14.65352 h 2.1107 2.1107 l 0.0721,4.82864 0.0721,4.82865 3.24113997,0.0743 3.24115003,0.0743 v -2.38939 -2.3894 h 1.11188 c 0.88381,0 1.2846,-0.16739 1.95386,-0.81607 0.69606,-0.67465 1.11986,-0.84127 2.4455,-0.96148 l 1.60354,-0.1454 0.0806,-7.74246 0.0806,-7.74246 1.88354,-1.8794 1.88353,-1.87939 h 3.85733 3.85732 l 0.08,1.38906 0.08,1.38906 2.71198,0.0754 2.71198,0.0754 v 11.05914 c 0,6.08253 0.083,11.14216 0.18446,11.24361 0.10145,0.10146 1.11348,-0.73911 2.24896,-1.86792 l 2.06449,-2.05239 v -2.5859 -2.58589 h 1.19063 1.19062 v -5.55625 -5.55625 h 0.92605 c 0.90399,0 0.92604,-0.0252 0.92604,-1.05833 v -1.05834 h 2.24895 2.24896 v 1.05834 1.05833 h 1.45521 1.45521 v 1.26581 c 0,1.18373 0.0944,1.359 1.45521,2.70294 1.43656,1.41871 1.45521,1.45711 1.45521,2.99572 v 1.55859 l 1.89679,1.95618 1.8968,1.95618 h 3.25099 3.25098 l 0.0777,-1.91823 0.0777,-1.91823 0.99219,-0.0821 c 0.90289,-0.0747 0.99218,-0.15212 0.99218,-0.8599 v -0.77777 h 1.71979 1.7198 v 2.78882 2.78882 l 2.18281,-0.0768 2.18281,-0.0768 0.0713,-5.75468 0.0713,-5.75469 h 0.90567 c 0.87634,0 0.9083,-0.0364 0.98703,-1.12448 l 0.0814,-1.12448 2.18281,-0.0769 2.18281,-0.0768 v 1.20132 c 0,1.19656 0.004,1.20133 0.92604,1.20133 h 0.92605 v 9.84952 9.84952 l 2.10322,-2.09088 c 1.81663,-1.80598 2.25827,-2.11158 3.24114,-2.24275 l 1.13793,-0.15187 0.0782,-1.78594 0.0782,-1.78593 h 1.17853 1.17854 v -8.71368 -8.71368 l 0.7276,-0.0837 c 0.7156,-0.0823 0.72888,-0.11729 0.80458,-2.11725 0.0707,-1.86846 0.12442,-2.04029 0.66146,-2.11667 0.53817,-0.0765 0.59497,-0.26134 0.71678,-2.33209 l 0.13229,-2.24896 1.8284,-0.0792 c 1.28382,-0.0556 1.89335,0.0232 2.04647,0.26458 0.11993,0.18909 0.21989,1.20699 0.22212,2.26202 0.004,1.72777 0.0556,1.91823 0.52292,1.91823 0.47007,0 0.52605,0.2177 0.59531,2.3151 l 0.0764,2.31511 0.8599,0.0829 0.8599,0.0829 v 1.70302 c 0,1.70056 0.001,1.70303 0.76289,1.70303 0.56748,0 0.80376,0.15248 0.92242,0.59531 0.0878,0.32743 0.16116,3.68935 0.16315,7.47094 l 0.004,6.87562 3.50205,3.50927 3.50205,3.50928 h 1.24709 1.24709 l 0.0795,-6.32922 c 0.0772,-6.14544 0.0968,-6.3476 0.67482,-6.96236 l 0.59532,-0.63315 v -20.094 -20.093956 l 4.83126,-4.82597 c 2.65711,-2.65428 4.97816,-4.82596 5.15782,-4.82596 0.25609,0 0.34125,4.92905 0.39425,22.820306 l 0.0676,22.82031 2.3151,0.0764 2.31511,0.0764 v 3.12901 c 0,2.72839 0.0678,3.21515 0.52916,3.80175 0.4839,0.61519 0.52949,1.07648 0.53279,5.39349 0.003,2.59642 0.0754,4.98866 0.16315,5.31608 0.15359,0.57309 0.2718,0.59531 3.16685,0.59531 h 3.0073 l 0.0707,-6.68073 0.0707,-6.68073 1.10998,-0.0807 c 1.09956,-0.0799 1.11072,-0.0911 1.19063,-1.19062 l 0.0806,-1.10998 2.18281,-0.0768 2.18282,-0.0769 v -1.5768 -1.5768 h 1.5875 1.5875 v -0.92604 -0.92604 h 2.05674 2.05671 l 2.10425,2.11667 c 1.88897,1.90011 2.20639,2.11666 3.10264,2.11666 h 0.99841 v 8.33438 8.33437 h 2.51354 2.51354 l 0.0279,-2.44739 c 0.0471,-4.13185 0.17219,-10.90288 0.20534,-11.1125 0.0172,-0.10914 0.55959,-0.19844 1.2052,-0.19844 1.13097,0 1.1769,-0.0314 1.25677,-0.8599 l 0.0829,-0.85989 h 1.98438 1.98437 l 0.1323,1.05833 c 0.12533,1.00261 0.18415,1.06263 1.11712,1.14001 l 0.98481,0.0817 0.0735,3.59322 0.0735,3.59323 1.25678,-1.18775 1.25677,-1.18775 v -6.91892 -6.91893 h 2.03604 c 1.84907,0 2.10418,0.0653 2.77813,0.71096 l 0.74208,0.71096 v 3.73187 3.73187 l 1.19062,1.16851 1.19063,1.16851 v 5.50116 5.50116 h 2.51354 2.51354 v -12.7 -12.7 h 3.16973 3.16974 l 0.0714,5.6224 c 0.0541,4.26169 0.15145,5.6304 0.40214,5.65547 0.1819,0.0182 0.80698,0.048 1.38906,0.0661 l 1.05834,0.0331 v 2.52938 2.52937 l 1.3613,1.43938 c 1.22362,1.29381 1.47257,1.43937 2.46163,1.43937 0.89731,0 1.25638,-0.16099 1.94599,-0.8725 l 0.84566,-0.87249 v -2.96397 -2.96396 h 2.77813 2.77812 v 2.04388 2.04388 l 1.69741,1.72643 c 1.65491,1.68322 1.93947,2.27807 1.99676,4.17383 0.007,0.24773 0.90487,0.33073 3.57576,0.33073 h 3.56579 l 0.0722,-4.69636 0.0723,-4.69635 2.84427,-0.0751 2.84427,-0.0751 v -3.29834 -3.29834 h 3.96875 3.96875 v 5.29166 5.29167 h 2.11667 2.11666 v -1.46403 c 0,-1.31772 0.0917,-1.55569 0.91723,-2.38125 0.89988,-0.89989 0.95891,-0.91722 3.12309,-0.91722 2.17366,0 2.21898,-0.0135 3.10343,-0.92604 0.88353,-0.91156 0.93184,-0.92604 3.08915,-0.92604 h 2.19157 l 0.0716,5.35781 0.0716,5.35781 2.17681,0.0768 2.1768,0.0768 0.0722,-4.83925 0.0721,-4.83925 1.93283,-0.078 c 1.63595,-0.066 1.92593,-0.14733 1.88778,-0.52917 -0.0249,-0.24812 -0.0314,-0.78302 -0.0145,-1.18867 l 0.0305,-0.73753 2.44739,0.0761 2.4474,0.0761 0.0711,6.02989 0.0711,6.02989 2.17781,-0.0768 2.17781,-0.0768 0.1323,-2.95654 c 0.11631,-2.59926 0.20423,-3.03296 0.7276,-3.58893 0.58129,-0.61748 0.59531,-0.77384 0.59531,-6.6346 l -8e-5,-6.00222 h 2.64584 2.64583 v 5.42396 5.42396 h 2.23975 c 2.12794,0 2.28645,0.041 3.175,0.82115 l 0.93525,0.82116 v 4.73509 4.7351 h 1.45521 1.45521 v -8.99584 -8.99583 h 3.43958 3.43958 v 4.75041 4.75041 l 1.78594,0.0782 1.78594,0.0782 0.0717,5.22552 0.0718,5.22552 h 4.72861 c 4.25892,0 4.74636,-0.046 4.90741,-0.46302 0.0984,-0.25466 0.0932,-6.86263 -0.0114,-14.68437 l -0.19028,-14.22136 h 1.49497 1.49498 v -1.05833 -1.05833 h 1.32291 c 1.29352,0 1.32292,0.0176 1.32292,0.79375 0,0.73075 0.0735,0.79375 0.92604,0.79375 h 0.92604 v 7.54062 7.54063 h 2.38125 2.38125 v -1.93068 c 0,-1.8862 0.023,-1.95325 1.00336,-2.91042 0.95488,-0.93243 1.08886,-0.97974 2.77439,-0.97974 h 1.77107 l 0.0699,8.40052 0.0698,8.40052 h 0.79375 c 0.77603,0 0.79555,-0.0325 0.8739,-1.4552 0.0716,-1.30116 0.19653,-1.57426 1.17956,-2.57969 0.91115,-0.93191 1.27125,-1.12448 2.10267,-1.12448 h 1.00325 v -7.21754 -7.21754 l 1.66076,-1.646 1.66077,-1.646 h 1.91111 1.91111 v 12.94294 c 0,7.11862 0.0723,13.13127 0.1606,13.36146 0.13343,0.34774 0.67032,0.41851 3.175,0.41851 h 3.0144 v -6.87916 -6.87917 h 2.77812 2.77813 v 34.52812 34.52813 h -254 -254 v -27.64896 z"
       id="path19897" />
  </g>
</svg>
