<?xml version="1.0" encoding="UTF-8" standalone="no"?>
<!-- Created with Inkscape (http://www.inkscape.org/) -->

<svg
   width="498.78717mm"
   height="107.30614mm"
   viewBox="0 0 498.78717 107.30613"
   version="1.1"
   id="svg19824"
   xmlns="http://www.w3.org/2000/svg"
   xmlns:svg="http://www.w3.org/2000/svg">
  <defs
     id="defs19821" />
  <g
     id="layer1"
     transform="translate(164.78126,-174.32507)">
    <path
       style="fill:#a0c2fa;stroke-width:0.74004"
       d="m -164.78126,269.42023 c 0,-10.36056 0.1681,-12.21066 1.11006,-12.21066 0.74578,0 1.11006,-0.7459 1.11006,-2.27297 0,-1.25015 0.49952,-2.7725 1.11006,-3.38303 0.9207,-0.92074 1.11006,-3.941 1.11006,-17.70812 V 217.2474 h 4.07022 4.07022 v -2.59014 -2.59014 h 4.07022 4.07022 v -6.29034 c 0,-3.7002 0.30473,-6.29034 0.74004,-6.29034 0.43531,0 0.74004,2.59014 0.74004,6.29034 v 6.29034 h 4.44023 4.44025 v 2.59014 c 0,2.56276 0.0341,2.59014 3.21548,2.59014 4.83429,0 5.66501,1.33787 5.66501,9.12376 v 6.41708 h 5.23313 c 5.48355,0 7.91584,1.15181 7.07263,3.3492 -0.33043,0.86106 0.27853,1.09104 2.88828,1.09104 h 3.30696 v 8.51047 c 0,7.07148 0.18764,8.51046 1.11007,8.51046 0.61053,0 1.11005,0.45597 1.11005,1.01324 0,0.9164 3.46412,1.91609 6.718258,1.93879 1.370504,0.008 2.902272,-5.67931 2.902272,-10.77892 0,-2.27344 0.308775,-3.27372 1.010613,-3.27372 0.725392,0 1.118364,1.50599 1.392416,5.33608 0.21094,2.94944 0.751985,5.45947 1.209498,5.61198 0.455242,0.15179 0.827701,0.91418 0.827701,1.69431 0,1.0196 0.520174,1.4184 1.8501,1.4184 h 1.8501 v -17.35942 -17.35942 l 5.140779,-4.10174 5.140776,-4.10175 h 11.250624 11.250629 l -0.410891,11.84065 -0.4109,11.84064 h 3.570026 c 4.263314,0 5.911206,0.53784 5.911206,1.92928 0,0.73194 0.988456,1.03087 3.408699,1.03087 2.691801,0 4.014739,0.48001 6.290342,2.28233 1.584898,1.25527 2.881641,2.75386 2.881641,3.33018 0,0.57634 0.666036,1.04786 1.480081,1.04786 1.278057,0 1.495213,0.53032 1.590961,3.88521 0.06098,2.13688 0.249603,2.96943 0.419174,1.8501 0.239085,-1.57814 0.712673,-2.03511 2.10924,-2.03511 h 1.800946 v -24.05131 -24.05131 h 1.8501 c 1.356739,0 1.8501,-0.39465 1.8501,-1.48007 0,-1.35672 0.493362,-1.48008 5.920322,-1.48008 5.4269581,0 5.9203199,0.12324 5.9203199,1.48008 0,0.9319 0.4933619,1.48007 1.3320734,1.48007 2.64474,0 3.1081679,1.51167 3.1081679,10.13856 0,5.08164 0.2903353,8.36246 0.7400402,8.36246 0.4070221,0 0.7400402,-1.16557 0.7400402,-2.59015 0,-1.809 0.3347808,-2.59013 1.1100603,-2.59013 0.7752796,0 1.1100604,0.78113 1.1100604,2.59013 0,2.26948 0.2290628,2.59015 1.85010019,2.59015 1.15117651,0 1.85010021,0.41937 1.85010021,1.11005 0,0.74005 0.7400404,1.11007 2.2201202,1.11007 1.2210663,0 2.2201206,0.33301 2.2201206,0.74003 0,0.40703 1.6650915,0.74004 3.7002015,0.74004 h 3.700201 v -7.03037 -7.0304 h 2.220119 c 1.480082,0 2.220121,-0.37002 2.220121,-1.11005 0,-0.92505 1.480081,-1.11007 8.880482,-1.11007 7.400402,0 8.880482,0.18502 8.880482,1.11007 0,0.81259 0.842834,1.11009 3.145171,1.11009 2.698163,3e-5 3.434407,0.36254 5.180281,2.55061 1.786692,2.23922 2.03511,3.18773 2.03511,7.77038 v 5.21982 h 3.330178 3.330184 v -24.79134 -24.79135 h 3.330183 c 2.836814,0 3.330175,-0.21938 3.330175,-1.48008 0,-1.38632 0.493361,-1.48008 7.788268,-1.48008 7.664849,0 7.84692,0.0403 11.490198,2.54649 2.036064,1.40058 4.359155,2.75508 5.162439,3.01006 1.422247,0.45139 1.4605,1.24717 1.4605,30.38528 v 29.92175 h 3.281033 c 3.011196,0 3.306369,0.16723 3.589315,2.0351 0.169567,1.11934 0.358188,-6.20706 0.419176,-16.28088 0.07053,-11.64336 0.380479,-18.31599 0.850915,-18.31599 0.40703,0 0.740047,-0.49953 0.740047,-1.11006 0,-0.61053 0.333016,-1.11006 0.740034,-1.11006 0.407018,0 0.74004,-0.66604 0.74004,-1.48008 0,-1.41202 0.493367,-1.48008 10.73058,-1.48008 h 10.73059 v 2.273 c 0,3.17361 1.52085,4.38735 5.49744,4.38735 h 3.38304 v -9.17334 -9.17335 l 3.70019,-2.37442 c 2.74985,-1.76459 3.7002,-2.82979 3.7002,-4.14738 v -1.77294 h 14.43079 c 14.17974,0 14.43079,0.0262 14.43079,1.5586 0,0.85722 1.01939,2.84569 2.2653,4.41876 l 2.2653,2.86019 0.0297,19.81756 c 0.0163,10.89962 0.18484,19.24564 0.37443,18.54669 0.20252,-0.74657 1.3928,-1.46747 2.88528,-1.74747 2.30048,-0.43155 2.54056,-0.71357 2.54056,-2.98439 0,-1.37928 0.33302,-2.50777 0.74004,-2.50777 0.40703,0 0.74004,1.16556 0.74004,2.59013 v 2.59015 h 6.29034 c 5.79699,0 6.29035,0.11596 6.29035,1.48007 0,1.15118 0.49335,1.48008 2.22012,1.48008 h 2.22012 v 4.44024 4.44024 h 5.5503 5.5503 v -6.66036 c 0,-3.94685 0.30149,-6.66035 0.74004,-6.66035 0.40703,0 0.74004,-0.49954 0.74004,-1.11007 0,-0.92973 1.56146,-1.11005 9.61296,-1.11005 h 9.61294 l 5.18785,3.32534 5.18785,3.32531 v 5.18515 c 0,4.69177 0.14073,5.18511 1.48009,5.18511 0.82226,0 1.48007,-0.49334 1.48007,-1.11005 0,-0.91833 1.38289,-1.11007 8.0059,-1.11007 7.87866,0 8.05513,0.0378 11.10061,2.3785 l 3.09471,2.37848 v 6.13199 c 0,4.95727 0.21268,6.13197 1.11005,6.13197 0.87287,0 1.11007,-1.02785 1.11007,-4.81028 v -4.81025 h 2.22011 2.22012 V 231.67819 217.2474 h 2.96016 c 2.46678,0 2.96016,-0.24677 2.96016,-1.48008 0,-1.37621 0.49336,-1.48008 7.03038,-1.48008 7.00571,0 7.03038,0.006 7.03038,1.85011 0,1.56229 0.34535,1.8501 2.22013,1.8501 h 2.22012 v 5.4406 5.44063 l 6.10533,0.47526 c 3.35791,0.26135 7.83402,0.47726 9.94687,0.47971 2.11284,0.002 4.04624,0.33568 4.29642,0.74051 0.25028,0.40482 1.13509,1.10006 1.96638,1.54497 1.44194,0.77171 1.50392,0.6272 1.34705,-3.14121 -0.0903,-2.17255 -0.12295,-4.36635 -0.0725,-4.87515 0.11159,-1.12288 7.49224,-1.30515 7.49224,-0.185 0,0.40702 1.24881,0.73957 2.77516,0.73899 l 2.77514,-7.4e-4 -0.24094,10.36163 -0.24096,10.3616 h 3.75614 3.75614 v 18.13097 18.13099 H 84.612334 -164.7812 v -12.21066 z"
       id="path20094" />
  </g>
</svg>
